<mxfile host="app.diagrams.net" modified="2024-05-13T12:17:37.678Z" agent="Mozilla/5.0 (Macintosh; Intel Mac OS X 10_15_7) AppleWebKit/537.36 (KHTML, like Gecko) Chrome/124.0.0.0 Safari/537.36" etag="JxDv8hga11uvbkVtvHNC" version="24.4.0" type="github">
  <diagram name="Page-1" id="74e2e168-ea6b-b213-b513-2b3c1d86103e">
    <mxGraphModel dx="1306" dy="715" grid="1" gridSize="10" guides="1" tooltips="1" connect="1" arrows="1" fold="1" page="1" pageScale="1" pageWidth="1100" pageHeight="850" background="none" math="0" shadow="0">
      <root>
        <mxCell id="0" />
        <mxCell id="1" parent="0" />
        <mxCell id="77e6c97f196da883-1" value="Pool" style="swimlane;html=1;childLayout=stackLayout;startSize=20;rounded=0;shadow=0;labelBackgroundColor=none;strokeWidth=1;fontFamily=Verdana;fontSize=8;align=center;" parent="1" vertex="1">
          <mxGeometry x="80" y="39" width="1200" height="750" as="geometry" />
        </mxCell>
        <mxCell id="77e6c97f196da883-2" value="btmanagerd" style="swimlane;html=1;startSize=20;" parent="77e6c97f196da883-1" vertex="1">
          <mxGeometry y="20" width="160" height="730" as="geometry" />
        </mxCell>
        <mxCell id="77e6c97f196da883-8" value="bta_hh_le_input_rpt_notify" style="rounded=1;whiteSpace=wrap;html=1;shadow=0;labelBackgroundColor=none;strokeWidth=1;fontFamily=Verdana;fontSize=8;align=center;" parent="77e6c97f196da883-2" vertex="1">
          <mxGeometry x="10" y="60" width="140" height="60" as="geometry" />
        </mxCell>
        <mxCell id="77e6c97f196da883-26" style="edgeStyle=orthogonalEdgeStyle;rounded=1;html=1;labelBackgroundColor=none;startArrow=none;startFill=0;startSize=5;endArrow=classicThin;endFill=1;endSize=5;jettySize=auto;orthogonalLoop=1;strokeWidth=1;fontFamily=Verdana;fontSize=8" parent="77e6c97f196da883-1" source="77e6c97f196da883-8" target="77e6c97f196da883-11" edge="1">
          <mxGeometry relative="1" as="geometry" />
        </mxCell>
        <mxCell id="77e6c97f196da883-3" value="inputd" style="swimlane;html=1;startSize=20;" parent="77e6c97f196da883-1" vertex="1">
          <mxGeometry x="160" y="20" width="160" height="730" as="geometry" />
        </mxCell>
        <mxCell id="77e6c97f196da883-11" value="&lt;div&gt;Inputd:notify&lt;br&gt;&lt;/div&gt;Inputd:accept:&lt;div&gt;Inputd:accept:96: Event is not a key or switch type: 4&lt;br&gt;&lt;/div&gt;" style="rounded=1;whiteSpace=wrap;html=1;shadow=0;labelBackgroundColor=none;strokeWidth=1;fontFamily=Verdana;fontSize=8;align=center;" parent="77e6c97f196da883-3" vertex="1">
          <mxGeometry x="10" y="60" width="140" height="60" as="geometry" />
        </mxCell>
        <mxCell id="4llOrDusf5U5oBpGNFT5-69" value="&lt;div&gt;onPowerStateChanged&lt;br&gt;&lt;/div&gt;&lt;div&gt;Received power state change for the display: ignoring because the resource is forced off&lt;br&gt;&lt;/div&gt;" style="rounded=1;whiteSpace=wrap;html=1;shadow=0;labelBackgroundColor=none;strokeWidth=1;fontFamily=Verdana;fontSize=8;align=center;" vertex="1" parent="77e6c97f196da883-3">
          <mxGeometry x="10" y="180" width="140" height="60" as="geometry" />
        </mxCell>
        <mxCell id="4llOrDusf5U5oBpGNFT5-73" value="" style="edgeStyle=orthogonalEdgeStyle;rounded=0;orthogonalLoop=1;jettySize=auto;html=1;" edge="1" parent="77e6c97f196da883-3" source="4llOrDusf5U5oBpGNFT5-71" target="4llOrDusf5U5oBpGNFT5-72">
          <mxGeometry relative="1" as="geometry" />
        </mxCell>
        <mxCell id="4llOrDusf5U5oBpGNFT5-71" value="&lt;div&gt;Inputd:accept:147: Power Resource Acquired for Key Event&lt;br&gt;&lt;/div&gt;&lt;div&gt;Inputd:accept:267: Key event consumed by the input filter&lt;br&gt;&lt;/div&gt;&lt;div&gt;&lt;br&gt;&lt;/div&gt;&lt;div&gt;Inputd:triggerEvent:591: ScreenToggle Internal Handler Triggered&lt;br&gt;&lt;/div&gt;" style="rounded=1;whiteSpace=wrap;html=1;shadow=0;labelBackgroundColor=none;strokeWidth=1;fontFamily=Verdana;fontSize=8;align=center;" vertex="1" parent="77e6c97f196da883-3">
          <mxGeometry x="10" y="365" width="140" height="85" as="geometry" />
        </mxCell>
        <mxCell id="4llOrDusf5U5oBpGNFT5-72" value="api:PowerManagerExt:&lt;div&gt;unforceDisplayOff be called&lt;/div&gt;" style="whiteSpace=wrap;html=1;fontSize=8;fontFamily=Verdana;rounded=1;shadow=0;labelBackgroundColor=none;strokeWidth=1;" vertex="1" parent="77e6c97f196da883-3">
          <mxGeometry x="20" y="500" width="120" height="60" as="geometry" />
        </mxCell>
        <mxCell id="77e6c97f196da883-4" value="powerd" style="swimlane;html=1;startSize=20;" parent="77e6c97f196da883-1" vertex="1">
          <mxGeometry x="320" y="20" width="160" height="730" as="geometry" />
        </mxCell>
        <mxCell id="77e6c97f196da883-12" value="&lt;div&gt;&lt;div&gt;ace_power_mgr_aipc_handler: request received! AIPC type=AIPC_FUNCTION_SYNC, request=RESOURCE_ACQ, clientId=43&lt;/div&gt;&lt;/div&gt;ace_power_mgr_acquireResource: caller=InputManagerDaemon" style="rounded=1;whiteSpace=wrap;html=1;shadow=0;labelBackgroundColor=none;strokeWidth=1;fontFamily=Verdana;fontSize=8;align=center;" parent="77e6c97f196da883-4" vertex="1">
          <mxGeometry x="11" y="45" width="140" height="90" as="geometry" />
        </mxCell>
        <mxCell id="4llOrDusf5U5oBpGNFT5-68" value="ace_power_event_publish: power event id=8192 published&lt;div&gt;ace_power_mgr_aipc_handler: request processed! AIPC type=AIPC_FUNCTION_SYNC, funcId=1, clientId=43, time_in_us=9042&lt;br&gt;&lt;/div&gt;" style="rounded=1;whiteSpace=wrap;html=1;shadow=0;labelBackgroundColor=none;strokeWidth=1;fontFamily=Verdana;fontSize=8;align=center;" vertex="1" parent="77e6c97f196da883-4">
          <mxGeometry x="10" y="260" width="140" height="80" as="geometry" />
        </mxCell>
        <mxCell id="77e6c97f196da883-5" value="eventmgrd" style="swimlane;html=1;startSize=20;" parent="77e6c97f196da883-1" vertex="1">
          <mxGeometry x="480" y="20" width="160" height="730" as="geometry" />
        </mxCell>
        <mxCell id="4llOrDusf5U5oBpGNFT5-7" value="subscriber:&lt;div&gt;lcm_service&lt;br&gt;&lt;/div&gt;&lt;div&gt;inputd&lt;br&gt;&lt;/div&gt;&lt;div&gt;idle-manager&lt;br&gt;&lt;/div&gt;&lt;div&gt;PuffinApp&lt;br&gt;&lt;/div&gt;&lt;div&gt;powerd&lt;br&gt;&lt;/div&gt;&lt;div&gt;&lt;br&gt;&lt;/div&gt;&lt;div&gt;aceEventMgrSkeleton:publish called by pid=1188(powerd)&lt;br&gt;&lt;/div&gt;" style="rounded=1;whiteSpace=wrap;html=1;shadow=0;labelBackgroundColor=none;strokeWidth=1;fontFamily=Verdana;fontSize=8;align=center;" vertex="1" parent="77e6c97f196da883-5">
          <mxGeometry x="13" y="40" width="137" height="100" as="geometry" />
        </mxCell>
        <mxCell id="77e6c97f196da883-7" value="lcm_service" style="swimlane;html=1;startSize=20;" parent="77e6c97f196da883-1" vertex="1">
          <mxGeometry x="640" y="20" width="160" height="730" as="geometry" />
        </mxCell>
        <mxCell id="4llOrDusf5U5oBpGNFT5-55" value="PowerManager:receive event::DISPLAY" style="rounded=1;whiteSpace=wrap;html=1;shadow=0;labelBackgroundColor=none;strokeWidth=1;fontFamily=Verdana;fontSize=8;align=center;" vertex="1" parent="77e6c97f196da883-7">
          <mxGeometry x="30" y="146" width="100" height="60" as="geometry" />
        </mxCell>
        <mxCell id="4llOrDusf5U5oBpGNFT5-61" value="idle-manager" style="swimlane;html=1;startSize=20;" vertex="1" parent="77e6c97f196da883-1">
          <mxGeometry x="800" y="20" width="240" height="730" as="geometry" />
        </mxCell>
        <mxCell id="4llOrDusf5U5oBpGNFT5-64" value="PowerManager:receive event::DISPLAY&lt;div&gt;&lt;br&gt;&lt;/div&gt;&lt;div&gt;sendMessage - broadcast://*/com.amazon.idle/time_to_screensaver?timeMs=-1&lt;br&gt;&lt;/div&gt;" style="rounded=1;whiteSpace=wrap;html=1;shadow=0;labelBackgroundColor=none;strokeWidth=1;fontFamily=Verdana;fontSize=8;align=center;" vertex="1" parent="4llOrDusf5U5oBpGNFT5-61">
          <mxGeometry x="6" y="190" width="230" height="60" as="geometry" />
        </mxCell>
        <mxCell id="77e6c97f196da883-6" value="PuffinApp" style="swimlane;html=1;startSize=20;" parent="77e6c97f196da883-1" vertex="1">
          <mxGeometry x="1040" y="20" width="160" height="730" as="geometry" />
        </mxCell>
        <mxCell id="4llOrDusf5U5oBpGNFT5-53" value="PowerManager:receive event::DISPLAY&lt;div&gt;&amp;nbsp;KSM_LMPFarFieldManager:&lt;/div&gt;&lt;div&gt;onPowerStateChanged&lt;br&gt;&lt;/div&gt;" style="rounded=1;whiteSpace=wrap;html=1;shadow=0;labelBackgroundColor=none;strokeWidth=1;fontFamily=Verdana;fontSize=8;align=center;" vertex="1" parent="77e6c97f196da883-6">
          <mxGeometry x="10" y="40" width="140" height="60" as="geometry" />
        </mxCell>
        <mxCell id="4llOrDusf5U5oBpGNFT5-8" value="" style="edgeStyle=orthogonalEdgeStyle;rounded=0;orthogonalLoop=1;jettySize=auto;html=1;" edge="1" parent="77e6c97f196da883-1" source="77e6c97f196da883-12" target="4llOrDusf5U5oBpGNFT5-7">
          <mxGeometry relative="1" as="geometry" />
        </mxCell>
        <mxCell id="4llOrDusf5U5oBpGNFT5-54" value="" style="edgeStyle=orthogonalEdgeStyle;rounded=0;orthogonalLoop=1;jettySize=auto;html=1;" edge="1" parent="77e6c97f196da883-1" source="4llOrDusf5U5oBpGNFT5-7" target="4llOrDusf5U5oBpGNFT5-53">
          <mxGeometry relative="1" as="geometry">
            <Array as="points">
              <mxPoint x="800" y="90" />
              <mxPoint x="800" y="90" />
            </Array>
          </mxGeometry>
        </mxCell>
        <mxCell id="4llOrDusf5U5oBpGNFT5-63" style="edgeStyle=orthogonalEdgeStyle;rounded=0;orthogonalLoop=1;jettySize=auto;html=1;exitX=1;exitY=0.75;exitDx=0;exitDy=0;" edge="1" parent="77e6c97f196da883-1" source="4llOrDusf5U5oBpGNFT5-7" target="4llOrDusf5U5oBpGNFT5-55">
          <mxGeometry relative="1" as="geometry" />
        </mxCell>
        <mxCell id="4llOrDusf5U5oBpGNFT5-67" style="edgeStyle=orthogonalEdgeStyle;rounded=0;orthogonalLoop=1;jettySize=auto;html=1;exitX=1;exitY=0.5;exitDx=0;exitDy=0;entryX=0.5;entryY=0;entryDx=0;entryDy=0;" edge="1" parent="77e6c97f196da883-1" source="4llOrDusf5U5oBpGNFT5-7" target="4llOrDusf5U5oBpGNFT5-64">
          <mxGeometry relative="1" as="geometry" />
        </mxCell>
        <mxCell id="4llOrDusf5U5oBpGNFT5-70" style="edgeStyle=orthogonalEdgeStyle;rounded=0;orthogonalLoop=1;jettySize=auto;html=1;exitX=0.5;exitY=1;exitDx=0;exitDy=0;entryX=0.5;entryY=0;entryDx=0;entryDy=0;" edge="1" parent="77e6c97f196da883-1" source="4llOrDusf5U5oBpGNFT5-7" target="4llOrDusf5U5oBpGNFT5-69">
          <mxGeometry relative="1" as="geometry" />
        </mxCell>
        <mxCell id="4llOrDusf5U5oBpGNFT5-74" style="edgeStyle=orthogonalEdgeStyle;rounded=0;orthogonalLoop=1;jettySize=auto;html=1;exitX=1;exitY=0.5;exitDx=0;exitDy=0;entryX=0;entryY=0.5;entryDx=0;entryDy=0;" edge="1" parent="77e6c97f196da883-1" source="77e6c97f196da883-11" target="77e6c97f196da883-12">
          <mxGeometry relative="1" as="geometry" />
        </mxCell>
      </root>
    </mxGraphModel>
  </diagram>
</mxfile>
